<svg width="214" height="47" viewBox="0 0 214 47" fill="none" xmlns="http://www.w3.org/2000/svg">
<path d="M65.0908 31.6831V10.1987H70.9136C72.4761 10.1987 73.6113 10.5812 74.3193 11.3462C75.0355 12.103 75.3936 13.3563 75.3936 15.106V16.0459C75.3936 17.055 75.2104 17.8729 74.8442 18.4995C74.4862 19.1261 73.9368 19.5371 73.1963 19.7324C74.1647 19.9766 74.8117 20.5503 75.1372 21.4536C75.4709 22.3488 75.6377 23.4434 75.6377 24.7373C75.6377 26.1289 75.5075 27.3455 75.2471 28.3872C74.9867 29.4289 74.5146 30.2386 73.8311 30.8164C73.1475 31.3942 72.175 31.6831 70.9136 31.6831H65.0908ZM69.29 18.292H70.1689C70.5677 18.292 70.8241 18.1374 70.938 17.8281C71.0519 17.5189 71.1089 17.1486 71.1089 16.7173V14.5566C71.1089 13.8649 70.8037 13.519 70.1934 13.519H69.29V18.292ZM69.7173 27.8989C70.8322 27.8989 71.3896 27.37 71.3896 26.312V23.6265C71.3896 23.0161 71.2961 22.536 71.1089 22.186C70.9299 21.828 70.5881 21.6489 70.0835 21.6489H69.29V27.8745C69.4691 27.8908 69.6115 27.8989 69.7173 27.8989ZM76.4678 31.6831L78.543 12.6401H85.8306L87.8691 31.6831H83.8042L83.5234 28.2163H80.8867L80.6426 31.6831H76.4678ZM82.0342 16.0581L81.2407 24.7861H83.1206L82.2295 16.0581H82.0342ZM89.1875 31.6831V12.6401H95.6572C96.7559 12.6401 97.5941 12.8721 98.1719 13.3359C98.7578 13.7998 99.1566 14.4386 99.3682 15.2524C99.5798 16.0581 99.6855 16.9818 99.6855 18.0234C99.6855 19.3337 99.5065 20.3713 99.1484 21.1362C98.7904 21.9012 98.2126 22.4261 97.415 22.7109C98.1393 22.8249 98.652 23.1504 98.9531 23.6875C99.2624 24.2246 99.417 24.9326 99.417 25.8115V31.6831H95.1567V25.5308C95.1567 24.9041 95.0265 24.5176 94.7661 24.3711C94.5138 24.2165 94.1029 24.1392 93.5332 24.1392V31.6831H89.1875ZM93.5576 20.416H94.5952C95.1893 20.416 95.4863 19.7812 95.4863 18.5117C95.4863 17.7467 95.4212 17.2422 95.291 16.998C95.1608 16.7458 94.9167 16.6196 94.5586 16.6196H93.5576V20.416ZM100.516 31.6831L102.591 12.6401H109.878L111.917 31.6831H107.852L107.571 28.2163H104.935L104.69 31.6831H100.516ZM106.082 16.0581L105.289 24.7861H107.168L106.277 16.0581H106.082ZM113.235 31.6831V12.6401H117.654L119.876 22.9673V12.6401H123.782V31.6831H119.583L117.19 21.3682V31.6831H113.235ZM130.118 31.8784C127.05 31.8784 125.516 29.6812 125.516 25.2866V18.5361C125.516 14.5241 127.273 12.5181 130.789 12.5181C132.238 12.5181 133.348 12.7826 134.122 13.3115C134.895 13.8324 135.428 14.5811 135.721 15.5576C136.014 16.5342 136.16 17.7101 136.16 19.0854H131.961V18.1089C131.961 17.645 131.896 17.2585 131.766 16.9492C131.644 16.6318 131.383 16.4731 130.984 16.4731C130.488 16.4731 130.158 16.64 129.996 16.9736C129.841 17.3073 129.764 17.6735 129.764 18.0723V25.9702C129.764 26.548 129.837 27.02 129.983 27.3862C130.138 27.7443 130.435 27.9233 130.875 27.9233C131.33 27.9233 131.631 27.7443 131.778 27.3862C131.932 27.02 132.01 26.5399 132.01 25.9458V24.4077H130.862V20.6968H136.111V31.6831H134.39L133.658 29.8765C132.909 31.2111 131.729 31.8784 130.118 31.8784ZM137.283 31.6831L139.358 12.6401H146.646L148.685 31.6831H144.62L144.339 28.2163H141.702L141.458 31.6831H137.283ZM142.85 16.0581L142.056 24.7861H143.936L143.045 16.0581H142.85ZM152.017 31.6831V24.6152L148.587 12.6401H152.847L154.043 19.9277L155.24 12.6401H159.488L156.07 24.6152V31.6831H152.017ZM160.574 31.6831V10.1987H164.871V28.021H169.29V31.6831H160.574ZM170.315 31.6831V12.6401H174.466V31.6831H170.315ZM176.175 31.6831V12.6401H180.594L182.815 22.9673V12.6401H186.722V31.6831H182.522L180.13 21.3682V31.6831H176.175ZM188.626 31.6831V12.6401H192.874V20.4526L194.876 12.6401H199.197L196.756 21.6855L199.698 31.6831H195.242L192.898 22.9307V31.6831H188.626Z" fill="#8C0B1A"/>
<path d="M68.9187 40.6831L67.6047 38.2981H67.2357V40.6831H65.6967V34.3651H68.2797C68.7777 34.3651 69.2007 34.4521 69.5487 34.6261C69.9027 34.8001 70.1667 35.0401 70.3407 35.3461C70.5147 35.6461 70.6017 35.9821 70.6017 36.3541C70.6017 36.7741 70.4817 37.1491 70.2417 37.4791C70.0077 37.8091 69.6597 38.0431 69.1977 38.1811L70.6557 40.6831H68.9187ZM67.2357 37.2091H68.1897C68.4717 37.2091 68.6817 37.1401 68.8197 37.0021C68.9637 36.8641 69.0357 36.6691 69.0357 36.4171C69.0357 36.1771 68.9637 35.9881 68.8197 35.8501C68.6817 35.7121 68.4717 35.6431 68.1897 35.6431H67.2357V37.2091ZM76.3018 38.0911C76.3018 38.2351 76.2928 38.3851 76.2748 38.5411H72.7918C72.8158 38.8531 72.9148 39.0931 73.0888 39.2611C73.2688 39.4231 73.4878 39.5041 73.7458 39.5041C74.1298 39.5041 74.3968 39.3421 74.5468 39.0181H76.1848C76.1008 39.3481 75.9478 39.6451 75.7258 39.9091C75.5098 40.1731 75.2368 40.3801 74.9068 40.5301C74.5768 40.6801 74.2078 40.7551 73.7998 40.7551C73.3078 40.7551 72.8698 40.6501 72.4858 40.4401C72.1018 40.2301 71.8018 39.9301 71.5858 39.5401C71.3698 39.1501 71.2618 38.6941 71.2618 38.1721C71.2618 37.6501 71.3668 37.1941 71.5768 36.8041C71.7928 36.4141 72.0928 36.1141 72.4768 35.9041C72.8608 35.6941 73.3018 35.5891 73.7998 35.5891C74.2858 35.5891 74.7178 35.6911 75.0958 35.8951C75.4738 36.0991 75.7678 36.3901 75.9778 36.7681C76.1938 37.1461 76.3018 37.5871 76.3018 38.0911ZM74.7268 37.6861C74.7268 37.4221 74.6368 37.2121 74.4568 37.0561C74.2768 36.9001 74.0518 36.8221 73.7818 36.8221C73.5238 36.8221 73.3048 36.8971 73.1248 37.0471C72.9508 37.1971 72.8428 37.4101 72.8008 37.6861H74.7268ZM79.1567 40.7551C78.7187 40.7551 78.3287 40.6801 77.9867 40.5301C77.6447 40.3801 77.3747 40.1761 77.1767 39.9181C76.9787 39.6541 76.8677 39.3601 76.8437 39.0361H78.3647C78.3827 39.2101 78.4637 39.3511 78.6077 39.4591C78.7517 39.5671 78.9287 39.6211 79.1387 39.6211C79.3307 39.6211 79.4777 39.5851 79.5797 39.5131C79.6877 39.4351 79.7417 39.3361 79.7417 39.2161C79.7417 39.0721 79.6667 38.9671 79.5167 38.9011C79.3667 38.8291 79.1237 38.7511 78.7877 38.6671C78.4277 38.5831 78.1277 38.4961 77.8877 38.4061C77.6477 38.3101 77.4407 38.1631 77.2667 37.9651C77.0927 37.7611 77.0057 37.4881 77.0057 37.1461C77.0057 36.8581 77.0837 36.5971 77.2397 36.3631C77.4017 36.1231 77.6357 35.9341 77.9417 35.7961C78.2537 35.6581 78.6227 35.5891 79.0487 35.5891C79.6787 35.5891 80.1737 35.7451 80.5337 36.0571C80.8997 36.3691 81.1097 36.7831 81.1637 37.2991H79.7417C79.7177 37.1251 79.6397 36.9871 79.5077 36.8851C79.3817 36.7831 79.2137 36.7321 79.0037 36.7321C78.8237 36.7321 78.6857 36.7681 78.5897 36.8401C78.4937 36.9061 78.4457 36.9991 78.4457 37.1191C78.4457 37.2631 78.5207 37.3711 78.6707 37.4431C78.8267 37.5151 79.0667 37.5871 79.3907 37.6591C79.7627 37.7551 80.0657 37.8511 80.2997 37.9471C80.5337 38.0371 80.7377 38.1871 80.9117 38.3971C81.0917 38.6011 81.1847 38.8771 81.1907 39.2251C81.1907 39.5191 81.1067 39.7831 80.9387 40.0171C80.7767 40.2451 80.5397 40.4251 80.2277 40.5571C79.9217 40.6891 79.5647 40.7551 79.1567 40.7551ZM82.9062 35.1391C82.6362 35.1391 82.4142 35.0611 82.2402 34.9051C82.0722 34.7431 81.9882 34.5451 81.9882 34.3111C81.9882 34.0711 82.0722 33.8731 82.2402 33.7171C82.4142 33.5551 82.6362 33.4741 82.9062 33.4741C83.1702 33.4741 83.3862 33.5551 83.5542 33.7171C83.7282 33.8731 83.8152 34.0711 83.8152 34.3111C83.8152 34.5451 83.7282 34.7431 83.5542 34.9051C83.3862 35.0611 83.1702 35.1391 82.9062 35.1391ZM83.6712 35.6611V40.6831H82.1322V35.6611H83.6712ZM84.4805 38.1631C84.4805 37.6471 84.5765 37.1941 84.7685 36.8041C84.9665 36.4141 85.2335 36.1141 85.5695 35.9041C85.9055 35.6941 86.2805 35.5891 86.6945 35.5891C87.0245 35.5891 87.3245 35.6581 87.5945 35.7961C87.8705 35.9341 88.0865 36.1201 88.2425 36.3541V34.0231H89.7815V40.6831H88.2425V39.9631C88.0985 40.2031 87.8915 40.3951 87.6215 40.5391C87.3575 40.6831 87.0485 40.7551 86.6945 40.7551C86.2805 40.7551 85.9055 40.6501 85.5695 40.4401C85.2335 40.2241 84.9665 39.9211 84.7685 39.5311C84.5765 39.1351 84.4805 38.6791 84.4805 38.1631ZM88.2425 38.1721C88.2425 37.7881 88.1345 37.4851 87.9185 37.2631C87.7085 37.0411 87.4505 36.9301 87.1445 36.9301C86.8385 36.9301 86.5775 37.0411 86.3615 37.2631C86.1515 37.4791 86.0465 37.7791 86.0465 38.1631C86.0465 38.5471 86.1515 38.8531 86.3615 39.0811C86.5775 39.3031 86.8385 39.4141 87.1445 39.4141C87.4505 39.4141 87.7085 39.3031 87.9185 39.0811C88.1345 38.8591 88.2425 38.5561 88.2425 38.1721ZM95.6289 38.0911C95.6289 38.2351 95.6199 38.3851 95.6019 38.5411H92.1189C92.1429 38.8531 92.2419 39.0931 92.4159 39.2611C92.5959 39.4231 92.8149 39.5041 93.0729 39.5041C93.4569 39.5041 93.7239 39.3421 93.8739 39.0181H95.5119C95.4279 39.3481 95.2749 39.6451 95.0529 39.9091C94.8369 40.1731 94.5639 40.3801 94.2339 40.5301C93.9039 40.6801 93.5349 40.7551 93.1269 40.7551C92.6349 40.7551 92.1969 40.6501 91.8129 40.4401C91.4289 40.2301 91.1289 39.9301 90.9129 39.5401C90.6969 39.1501 90.5889 38.6941 90.5889 38.1721C90.5889 37.6501 90.6939 37.1941 90.9039 36.8041C91.1199 36.4141 91.4199 36.1141 91.8039 35.9041C92.1879 35.6941 92.6289 35.5891 93.1269 35.5891C93.6129 35.5891 94.0449 35.6911 94.4229 35.8951C94.8009 36.0991 95.0949 36.3901 95.3049 36.7681C95.5209 37.1461 95.6289 37.5871 95.6289 38.0911ZM94.0539 37.6861C94.0539 37.4221 93.9639 37.2121 93.7839 37.0561C93.6039 36.9001 93.3789 36.8221 93.1089 36.8221C92.8509 36.8221 92.6319 36.8971 92.4519 37.0471C92.2779 37.1971 92.1699 37.4101 92.1279 37.6861H94.0539ZM99.5008 35.6071C100.089 35.6071 100.557 35.7991 100.905 36.1831C101.259 36.5611 101.436 37.0831 101.436 37.7491V40.6831H99.9058V37.9561C99.9058 37.6201 99.8188 37.3591 99.6448 37.1731C99.4708 36.9871 99.2368 36.8941 98.9428 36.8941C98.6488 36.8941 98.4148 36.9871 98.2408 37.1731C98.0668 37.3591 97.9798 37.6201 97.9798 37.9561V40.6831H96.4408V35.6611H97.9798V36.3271C98.1358 36.1051 98.3458 35.9311 98.6098 35.8051C98.8738 35.6731 99.1708 35.6071 99.5008 35.6071ZM105.304 39.3781V40.6831H104.521C103.963 40.6831 103.528 40.5481 103.216 40.2781C102.904 40.0021 102.748 39.5551 102.748 38.9371V36.9391H102.136V35.6611H102.748V34.4371H104.287V35.6611H105.295V36.9391H104.287V38.9551C104.287 39.1051 104.323 39.2131 104.395 39.2791C104.467 39.3451 104.587 39.3781 104.755 39.3781H105.304ZM107.763 38.1631C107.763 37.6471 107.859 37.1941 108.051 36.8041C108.249 36.4141 108.516 36.1141 108.852 35.9041C109.188 35.6941 109.563 35.5891 109.977 35.5891C110.331 35.5891 110.64 35.6611 110.904 35.8051C111.174 35.9491 111.381 36.1381 111.525 36.3721V35.6611H113.064V40.6831H111.525V39.9721C111.375 40.2061 111.165 40.3951 110.895 40.5391C110.631 40.6831 110.322 40.7551 109.968 40.7551C109.56 40.7551 109.188 40.6501 108.852 40.4401C108.516 40.2241 108.249 39.9211 108.051 39.5311C107.859 39.1351 107.763 38.6791 107.763 38.1631ZM111.525 38.1721C111.525 37.7881 111.417 37.4851 111.201 37.2631C110.991 37.0411 110.733 36.9301 110.427 36.9301C110.121 36.9301 109.86 37.0411 109.644 37.2631C109.434 37.4791 109.329 37.7791 109.329 38.1631C109.329 38.5471 109.434 38.8531 109.644 39.0811C109.86 39.3031 110.121 39.4141 110.427 39.4141C110.733 39.4141 110.991 39.3031 111.201 39.0811C111.417 38.8591 111.525 38.5561 111.525 38.1721ZM117.237 35.6071C117.825 35.6071 118.293 35.7991 118.641 36.1831C118.995 36.5611 119.172 37.0831 119.172 37.7491V40.6831H117.642V37.9561C117.642 37.6201 117.555 37.3591 117.381 37.1731C117.207 36.9871 116.973 36.8941 116.679 36.8941C116.385 36.8941 116.151 36.9871 115.977 37.1731C115.803 37.3591 115.716 37.6201 115.716 37.9561V40.6831H114.177V35.6611H115.716V36.3271C115.872 36.1051 116.082 35.9311 116.346 35.8051C116.61 35.6731 116.907 35.6071 117.237 35.6071ZM119.936 38.1631C119.936 37.6471 120.032 37.1941 120.224 36.8041C120.422 36.4141 120.689 36.1141 121.025 35.9041C121.361 35.6941 121.736 35.5891 122.15 35.5891C122.48 35.5891 122.78 35.6581 123.05 35.7961C123.326 35.9341 123.542 36.1201 123.698 36.3541V34.0231H125.237V40.6831H123.698V39.9631C123.554 40.2031 123.347 40.3951 123.077 40.5391C122.813 40.6831 122.504 40.7551 122.15 40.7551C121.736 40.7551 121.361 40.6501 121.025 40.4401C120.689 40.2241 120.422 39.9211 120.224 39.5311C120.032 39.1351 119.936 38.6791 119.936 38.1631ZM123.698 38.1721C123.698 37.7881 123.59 37.4851 123.374 37.2631C123.164 37.0411 122.906 36.9301 122.6 36.9301C122.294 36.9301 122.033 37.0411 121.817 37.2631C121.607 37.4791 121.502 37.7791 121.502 38.1631C121.502 38.5471 121.607 38.8531 121.817 39.0811C122.033 39.3031 122.294 39.4141 122.6 39.4141C122.906 39.4141 123.164 39.3031 123.374 39.0811C123.59 38.8591 123.698 38.5561 123.698 38.1721ZM133.729 34.3651V40.6831H132.19V38.0821H129.796V40.6831H128.257V34.3651H129.796V36.8401H132.19V34.3651H133.729ZM137.126 40.7551C136.634 40.7551 136.19 40.6501 135.794 40.4401C135.404 40.2301 135.095 39.9301 134.867 39.5401C134.645 39.1501 134.534 38.6941 134.534 38.1721C134.534 37.6561 134.648 37.2031 134.876 36.8131C135.104 36.4171 135.416 36.1141 135.812 35.9041C136.208 35.6941 136.652 35.5891 137.144 35.5891C137.636 35.5891 138.08 35.6941 138.476 35.9041C138.872 36.1141 139.184 36.4171 139.412 36.8131C139.64 37.2031 139.754 37.6561 139.754 38.1721C139.754 38.6881 139.637 39.1441 139.403 39.5401C139.175 39.9301 138.86 40.2301 138.458 40.4401C138.062 40.6501 137.618 40.7551 137.126 40.7551ZM137.126 39.4231C137.42 39.4231 137.669 39.3151 137.873 39.0991C138.083 38.8831 138.188 38.5741 138.188 38.1721C138.188 37.7701 138.086 37.4611 137.882 37.2451C137.684 37.0291 137.438 36.9211 137.144 36.9211C136.844 36.9211 136.595 37.0291 136.397 37.2451C136.199 37.4551 136.1 37.7641 136.1 38.1721C136.1 38.5741 136.196 38.8831 136.388 39.0991C136.586 39.3151 136.832 39.4231 137.126 39.4231ZM145.53 35.6611V40.6831H143.991V39.9991C143.835 40.2211 143.622 40.4011 143.352 40.5391C143.088 40.6711 142.794 40.7371 142.47 40.7371C142.086 40.7371 141.747 40.6531 141.453 40.4851C141.159 40.3111 140.931 40.0621 140.769 39.7381C140.607 39.4141 140.526 39.0331 140.526 38.5951V35.6611H142.056V38.3881C142.056 38.7241 142.143 38.9851 142.317 39.1711C142.491 39.3571 142.725 39.4501 143.019 39.4501C143.319 39.4501 143.556 39.3571 143.73 39.1711C143.904 38.9851 143.991 38.7241 143.991 38.3881V35.6611H145.53ZM148.678 40.7551C148.24 40.7551 147.85 40.6801 147.508 40.5301C147.166 40.3801 146.896 40.1761 146.698 39.9181C146.5 39.6541 146.389 39.3601 146.365 39.0361H147.886C147.904 39.2101 147.985 39.3511 148.129 39.4591C148.273 39.5671 148.45 39.6211 148.66 39.6211C148.852 39.6211 148.999 39.5851 149.101 39.5131C149.209 39.4351 149.263 39.3361 149.263 39.2161C149.263 39.0721 149.188 38.9671 149.038 38.9011C148.888 38.8291 148.645 38.7511 148.309 38.6671C147.949 38.5831 147.649 38.4961 147.409 38.4061C147.169 38.3101 146.962 38.1631 146.788 37.9651C146.614 37.7611 146.527 37.4881 146.527 37.1461C146.527 36.8581 146.605 36.5971 146.761 36.3631C146.923 36.1231 147.157 35.9341 147.463 35.7961C147.775 35.6581 148.144 35.5891 148.57 35.5891C149.2 35.5891 149.695 35.7451 150.055 36.0571C150.421 36.3691 150.631 36.7831 150.685 37.2991H149.263C149.239 37.1251 149.161 36.9871 149.029 36.8851C148.903 36.7831 148.735 36.7321 148.525 36.7321C148.345 36.7321 148.207 36.7681 148.111 36.8401C148.015 36.9061 147.967 36.9991 147.967 37.1191C147.967 37.2631 148.042 37.3711 148.192 37.4431C148.348 37.5151 148.588 37.5871 148.912 37.6591C149.284 37.7551 149.587 37.8511 149.821 37.9471C150.055 38.0371 150.259 38.1871 150.433 38.3971C150.613 38.6011 150.706 38.8771 150.712 39.2251C150.712 39.5191 150.628 39.7831 150.46 40.0171C150.298 40.2451 150.061 40.4251 149.749 40.5571C149.443 40.6891 149.086 40.7551 148.678 40.7551ZM156.388 38.0911C156.388 38.2351 156.379 38.3851 156.361 38.5411H152.878C152.902 38.8531 153.001 39.0931 153.175 39.2611C153.355 39.4231 153.574 39.5041 153.832 39.5041C154.216 39.5041 154.483 39.3421 154.633 39.0181H156.271C156.187 39.3481 156.034 39.6451 155.812 39.9091C155.596 40.1731 155.323 40.3801 154.993 40.5301C154.663 40.6801 154.294 40.7551 153.886 40.7551C153.394 40.7551 152.956 40.6501 152.572 40.4401C152.188 40.2301 151.888 39.9301 151.672 39.5401C151.456 39.1501 151.348 38.6941 151.348 38.1721C151.348 37.6501 151.453 37.1941 151.663 36.8041C151.879 36.4141 152.179 36.1141 152.563 35.9041C152.947 35.6941 153.388 35.5891 153.886 35.5891C154.372 35.5891 154.804 35.6911 155.182 35.8951C155.56 36.0991 155.854 36.3901 156.064 36.7681C156.28 37.1461 156.388 37.5871 156.388 38.0911ZM154.813 37.6861C154.813 37.4221 154.723 37.2121 154.543 37.0561C154.363 36.9001 154.138 36.8221 153.868 36.8221C153.61 36.8221 153.391 36.8971 153.211 37.0471C153.037 37.1971 152.929 37.4101 152.887 37.6861H154.813ZM162.329 40.6831L161.015 38.2981H160.646V40.6831H159.107V34.3651H161.69C162.188 34.3651 162.611 34.4521 162.959 34.6261C163.313 34.8001 163.577 35.0401 163.751 35.3461C163.925 35.6461 164.012 35.9821 164.012 36.3541C164.012 36.7741 163.892 37.1491 163.652 37.4791C163.418 37.8091 163.07 38.0431 162.608 38.1811L164.066 40.6831H162.329ZM160.646 37.2091H161.6C161.882 37.2091 162.092 37.1401 162.23 37.0021C162.374 36.8641 162.446 36.6691 162.446 36.4171C162.446 36.1771 162.374 35.9881 162.23 35.8501C162.092 35.7121 161.882 35.6431 161.6 35.6431H160.646V37.2091ZM169.712 38.0911C169.712 38.2351 169.703 38.3851 169.685 38.5411H166.202C166.226 38.8531 166.325 39.0931 166.499 39.2611C166.679 39.4231 166.898 39.5041 167.156 39.5041C167.54 39.5041 167.807 39.3421 167.957 39.0181H169.595C169.511 39.3481 169.358 39.6451 169.136 39.9091C168.92 40.1731 168.647 40.3801 168.317 40.5301C167.987 40.6801 167.618 40.7551 167.21 40.7551C166.718 40.7551 166.28 40.6501 165.896 40.4401C165.512 40.2301 165.212 39.9301 164.996 39.5401C164.78 39.1501 164.672 38.6941 164.672 38.1721C164.672 37.6501 164.777 37.1941 164.987 36.8041C165.203 36.4141 165.503 36.1141 165.887 35.9041C166.271 35.6941 166.712 35.5891 167.21 35.5891C167.696 35.5891 168.128 35.6911 168.506 35.8951C168.884 36.0991 169.178 36.3901 169.388 36.7681C169.604 37.1461 169.712 37.5871 169.712 38.0911ZM168.137 37.6861C168.137 37.4221 168.047 37.2121 167.867 37.0561C167.687 36.9001 167.462 36.8221 167.192 36.8221C166.934 36.8221 166.715 36.8971 166.535 37.0471C166.361 37.1971 166.253 37.4101 166.211 37.6861H168.137ZM172.432 35.5891C172.786 35.5891 173.095 35.6611 173.359 35.8051C173.629 35.9491 173.836 36.1381 173.98 36.3721V35.6611H175.519V40.6741C175.519 41.1361 175.426 41.5531 175.24 41.9251C175.06 42.3031 174.781 42.6031 174.403 42.8251C174.031 43.0471 173.566 43.1581 173.008 43.1581C172.264 43.1581 171.661 42.9811 171.199 42.6271C170.737 42.2791 170.473 41.8051 170.407 41.2051H171.928C171.976 41.3971 172.09 41.5471 172.27 41.6551C172.45 41.7691 172.672 41.8261 172.936 41.8261C173.254 41.8261 173.506 41.7331 173.692 41.5471C173.884 41.3671 173.98 41.0761 173.98 40.6741V39.9631C173.83 40.1971 173.623 40.3891 173.359 40.5391C173.095 40.6831 172.786 40.7551 172.432 40.7551C172.018 40.7551 171.643 40.6501 171.307 40.4401C170.971 40.2241 170.704 39.9211 170.506 39.5311C170.314 39.1351 170.218 38.6791 170.218 38.1631C170.218 37.6471 170.314 37.1941 170.506 36.8041C170.704 36.4141 170.971 36.1141 171.307 35.9041C171.643 35.6941 172.018 35.5891 172.432 35.5891ZM173.98 38.1721C173.98 37.7881 173.872 37.4851 173.656 37.2631C173.446 37.0411 173.188 36.9301 172.882 36.9301C172.576 36.9301 172.315 37.0411 172.099 37.2631C171.889 37.4791 171.784 37.7791 171.784 38.1631C171.784 38.5471 171.889 38.8531 172.099 39.0811C172.315 39.3031 172.576 39.4141 172.882 39.4141C173.188 39.4141 173.446 39.3031 173.656 39.0811C173.872 38.8591 173.98 38.5561 173.98 38.1721ZM177.406 35.1391C177.136 35.1391 176.914 35.0611 176.74 34.9051C176.572 34.7431 176.488 34.5451 176.488 34.3111C176.488 34.0711 176.572 33.8731 176.74 33.7171C176.914 33.5551 177.136 33.4741 177.406 33.4741C177.67 33.4741 177.886 33.5551 178.054 33.7171C178.228 33.8731 178.315 34.0711 178.315 34.3111C178.315 34.5451 178.228 34.7431 178.054 34.9051C177.886 35.0611 177.67 35.1391 177.406 35.1391ZM178.171 35.6611V40.6831H176.632V35.6611H178.171ZM181.33 40.7551C180.892 40.7551 180.502 40.6801 180.16 40.5301C179.818 40.3801 179.548 40.1761 179.35 39.9181C179.152 39.6541 179.041 39.3601 179.017 39.0361H180.538C180.556 39.2101 180.637 39.3511 180.781 39.4591C180.925 39.5671 181.102 39.6211 181.312 39.6211C181.504 39.6211 181.651 39.5851 181.753 39.5131C181.861 39.4351 181.915 39.3361 181.915 39.2161C181.915 39.0721 181.84 38.9671 181.69 38.9011C181.54 38.8291 181.297 38.7511 180.961 38.6671C180.601 38.5831 180.301 38.4961 180.061 38.4061C179.821 38.3101 179.614 38.1631 179.44 37.9651C179.266 37.7611 179.179 37.4881 179.179 37.1461C179.179 36.8581 179.257 36.5971 179.413 36.3631C179.575 36.1231 179.809 35.9341 180.115 35.7961C180.427 35.6581 180.796 35.5891 181.222 35.5891C181.852 35.5891 182.347 35.7451 182.707 36.0571C183.073 36.3691 183.283 36.7831 183.337 37.2991H181.915C181.891 37.1251 181.813 36.9871 181.681 36.8851C181.555 36.7831 181.387 36.7321 181.177 36.7321C180.997 36.7321 180.859 36.7681 180.763 36.8401C180.667 36.9061 180.619 36.9991 180.619 37.1191C180.619 37.2631 180.694 37.3711 180.844 37.4431C181 37.5151 181.24 37.5871 181.564 37.6591C181.936 37.7551 182.239 37.8511 182.473 37.9471C182.707 38.0371 182.911 38.1871 183.085 38.3971C183.265 38.6011 183.358 38.8771 183.364 39.2251C183.364 39.5191 183.28 39.7831 183.112 40.0171C182.95 40.2451 182.713 40.4251 182.401 40.5571C182.095 40.6891 181.738 40.7551 181.33 40.7551ZM187.104 39.3781V40.6831H186.321C185.763 40.6831 185.328 40.5481 185.016 40.2781C184.704 40.0021 184.548 39.5551 184.548 38.9371V36.9391H183.936V35.6611H184.548V34.4371H186.087V35.6611H187.095V36.9391H186.087V38.9551C186.087 39.1051 186.123 39.2131 186.195 39.2791C186.267 39.3451 186.387 39.3781 186.555 39.3781H187.104ZM189.5 36.4981C189.68 36.2221 189.905 36.0061 190.175 35.8501C190.445 35.6881 190.745 35.6071 191.075 35.6071V37.2361H190.652C190.268 37.2361 189.98 37.3201 189.788 37.4881C189.596 37.6501 189.5 37.9381 189.5 38.3521V40.6831H187.961V35.6611H189.5V36.4981ZM196.941 35.6611L193.791 43.0681H192.135L193.287 40.5121L191.244 35.6611H192.963L194.124 38.8021L195.276 35.6611H196.941Z" fill="#8C0B1A"/>
<rect x="7.30664" y="17.4067" width="38.6972" height="12.8852" fill="#8C0B1A"/>
<ellipse cx="26.6552" cy="30.1695" rx="19.3486" ry="2.06649" fill="#8C0B1A"/>
<path d="M25.582 5.92391C26.2034 5.55892 26.9749 5.5582 27.6005 5.92202L43.1725 14.9787C44.94 16.0067 44.225 18.7044 42.1845 18.7063L11.1437 18.7354C9.1031 18.7373 8.35738 16.041 10.1132 15.0097L25.582 5.92391Z" fill="#8C0B1A"/>
<line y1="-1.5" x2="29.8726" y2="-1.5" transform="matrix(0.86297 -0.505254 0.455882 0.89004 1.36719 17.7764)" stroke="#8C0B1A" stroke-width="3"/>
<line y1="-1.5" x2="29.8556" y2="-1.5" transform="matrix(0.868079 0.496426 -0.447423 0.894323 25.3965 2.68311)" stroke="#8C0B1A" stroke-width="3"/>
<ellipse cx="33.5409" cy="22.3842" rx="3.68545" ry="3.94032" fill="#FAFAFA"/>
<ellipse cx="20.6415" cy="20.4139" rx="3.68545" ry="3.94032" fill="#FAFAFA"/>
<g opacity="0.85">
<path d="M6.89551 33.5483C22.766 35.3947 31.0891 35.1767 45.5927 33.5483V37.3096H6.89551V33.5483Z" fill="#8C0B1A"/>
<ellipse cx="26.2441" cy="37.3094" rx="19.3486" ry="2.14926" fill="#8C0B1A"/>
</g>
<g opacity="0.85">
<path d="M6.89551 40.7744C22.766 42.6208 31.0891 42.4027 45.5927 40.7744V44.5356H6.89551V40.7744Z" fill="#8C0B1A"/>
<ellipse cx="26.2441" cy="44.534" rx="19.3486" ry="2.14926" fill="#8C0B1A"/>
</g>
<rect opacity="0.5" x="13.8857" y="26.9814" width="12.8991" height="19.7016" rx="1" fill="#FAFAFA"/>
<rect opacity="0.99" x="13.8857" y="25.0112" width="12.8991" height="9.19407" rx="4" fill="#FAFAFA"/>
<rect x="26.7842" y="26.9814" width="12.8991" height="7.22391" rx="3.61196" fill="#FAFAFA"/>
<rect opacity="0.5" x="26.7842" y="29.6079" width="12.8991" height="17.0747" rx="1" fill="#FAFAFA"/>
</svg>
