<svg width="60" height="53" viewBox="0 0 60 53" fill="none" xmlns="http://www.w3.org/2000/svg">
<rect x="8.11426" y="19.4155" width="43.8061" height="14.6422" fill="#8C0B1A"/>
<ellipse cx="30.0173" cy="33.9196" rx="21.903" ry="2.34827" fill="#8C0B1A"/>
<path d="M28.9324 6.29237C29.5552 5.92515 30.3296 5.92444 30.9566 6.29051L49.5888 17.168C51.3533 18.1981 50.6372 20.892 48.5984 20.8938L11.4608 20.9279C9.42201 20.9298 8.67457 18.2372 10.427 17.2039L28.9324 6.29237Z" fill="#8C0B1A"/>
<line y1="-1.5" x2="33.8496" y2="-1.5" transform="matrix(0.862123 -0.506698 0.454498 0.890748 1.39062 19.8364)" stroke="#8C0B1A" stroke-width="3"/>
<line y1="-1.5" x2="33.8291" y2="-1.5" transform="matrix(0.867257 0.497861 -0.446051 0.895007 28.5923 2.68506)" stroke="#8C0B1A" stroke-width="3"/>
<ellipse cx="37.8126" cy="25.0733" rx="4.17201" ry="4.47761" fill="#FAFAFA"/>
<ellipse cx="23.2101" cy="22.8345" rx="4.17201" ry="4.47761" fill="#FAFAFA"/>
<g opacity="0.85">
<path d="M7.64844 37.7598C25.6142 39.8579 35.0361 39.6101 51.4545 37.7598V42.0338H7.64844V37.7598Z" fill="#8C0B1A"/>
<ellipse cx="29.5515" cy="42.0336" rx="21.903" ry="2.44233" fill="#8C0B1A"/>
</g>
<g opacity="0.85">
<path d="M7.64844 45.9688C25.6142 48.0669 35.0361 47.8191 51.4545 45.9688V50.2428H7.64844V45.9688Z" fill="#8C0B1A"/>
<ellipse cx="29.5515" cy="50.2426" rx="21.903" ry="2.44233" fill="#8C0B1A"/>
</g>
<rect opacity="0.5" x="15.5615" y="30.2969" width="14.602" height="22.3881" rx="1" fill="#FAFAFA"/>
<rect opacity="0.99" x="15.5615" y="28.0581" width="14.602" height="10.4478" rx="4" fill="#FAFAFA"/>
<rect x="30.1641" y="30.2969" width="14.602" height="8.20895" rx="4" fill="#FAFAFA"/>
<rect opacity="0.5" x="30.1641" y="33.2822" width="14.602" height="19.403" rx="1" fill="#FAFAFA"/>
</svg>
